<?xml version="1.0" encoding="UTF-8" standalone="no"?>
<svg
   viewBox="-150 -150 301 151.00029"
   id="svg7192"
   version="1.1"
   width="301"
   height="151.00029"
   xmlns="http://www.w3.org/2000/svg"
   xmlns:svg="http://www.w3.org/2000/svg"
   xmlns:rdf="http://www.w3.org/1999/02/22-rdf-syntax-ns#"
   xmlns:cc="http://creativecommons.org/ns#"
   xmlns:dc="http://purl.org/dc/elements/1.1/">
  <metadata
     id="metadata7408">
    <rdf:RDF>
      <cc:Work
         rdf:about="">
        <dc:format>image/svg+xml</dc:format>
        <dc:type
           rdf:resource="http://purl.org/dc/dcmitype/StillImage" />
      </cc:Work>
    </rdf:RDF>
  </metadata>
  <defs
     id="defs7406" />
  <g
     id="layer3"
     style="display:inline"
     transform="translate(-24.5,-2.5)">
    <rect
       style="display:inline;fill:#ffffff;fill-opacity:1;stroke-width:4.92987;stop-color:#000000"
       id="rect1156-0-4-8-2-1-3-00"
       width="50"
       height="50"
       x="-97.000015"
       y="-75"
       transform="rotate(90)" />
    <rect
       style="display:inline;fill:#ffffff;fill-opacity:1;stroke-width:4.92987;stop-color:#000000"
       id="rect1156-0-4-8-2-1-3-57"
       width="50"
       height="50"
       x="-147"
       y="-25"
       transform="rotate(90)" />
    <rect
       style="display:inline;fill:#ffffff;fill-opacity:1;stroke-width:4.92987;stop-color:#000000"
       id="rect1156-0-4-8-2-1-3-8"
       width="50"
       height="50"
       x="-147"
       y="-75"
       transform="rotate(90)" />
    <rect
       style="display:inline;fill:#ffffff;fill-opacity:1;stroke-width:4.92987;stop-color:#000000"
       id="rect1156-0-4-8-2-1-3-59"
       width="50"
       height="50"
       x="-147"
       y="25"
       transform="rotate(90)" />
    <rect
       style="display:inline;fill:#ffffff;fill-opacity:1;stroke-width:4.92987;stop-color:#000000"
       id="rect1156-0-4-8-2-1-3-7"
       width="50"
       height="50"
       x="-47.000015"
       y="-75"
       transform="rotate(90)" />
    <rect
       style="display:inline;fill:#ffffff;fill-opacity:1;stroke-width:4.92987;stop-color:#000000"
       id="rect1156-0-4-8-2-1-3-3"
       width="50"
       height="50"
       x="-97"
       y="25"
       transform="rotate(90)" />
    <rect
       style="display:inline;fill:#ffffff;fill-opacity:1;stroke-width:4.92987;stop-color:#000000"
       id="rect1156-0-4-8-2-1-3-0"
       width="50"
       height="50"
       x="-46.999714"
       y="-25"
       transform="rotate(90)" />
    <rect
       style="display:inline;fill:#ffffff;fill-opacity:1;stroke-width:4.92987;stop-color:#000000"
       id="rect1156-0-4-8-2-1-3"
       width="50"
       height="50"
       x="-47"
       y="25"
       transform="rotate(90)" />
    <path
       style="display:inline;fill:#b2b2b2;stroke-width:2.33229;stop-color:#000000"
       id="path989"
       d="M 58.333302,-47.000015 A 33.333302,33.333302 0 0 1 25,-13.666714 v -33.333301 z" />
    <path
       style="display:inline;fill:#b2b2b2;stroke-width:2.33229;stop-color:#000000"
       id="path989-9"
       d="M -13.666698,25 A 33.333302,33.333302 0 0 1 -47,58.333302 V 25 Z"
       transform="rotate(90)" />
    <path
       style="display:inline;fill:#b2b2b2;stroke-width:2.33229;stop-color:#000000"
       id="path989-9-8"
       d="M 130.33332,25 A 33.333302,33.333302 0 0 1 97.000015,58.333302 V 25 Z"
       transform="rotate(-90)" />
    <path
       style="display:inline;fill:#b2b2b2;stroke-width:2.33229;stop-color:#000000"
       id="path989-9-8-0"
       d="M 58.333302,97 A 33.333302,33.333302 0 0 1 25,130.3333 V 97 Z"
       transform="scale(-1)" />
    <rect
       style="fill:#b2b2b2;stroke-width:4.0252;stop-color:#000000"
       id="rect1156"
       width="33.333"
       height="50"
       x="25"
       y="-97.000015" />
    <rect
       style="display:inline;fill:#b2b2b2;stroke-width:4.0252;stop-color:#000000"
       id="rect1156-0"
       width="33.333"
       height="50"
       x="-58.333"
       y="-97" />
    <rect
       style="display:inline;fill:#b2b2b2;stroke-width:4.0252;stop-color:#000000"
       id="rect1156-0-4"
       width="33.333"
       height="50"
       x="-130.33301"
       y="-25"
       transform="rotate(90)" />
    <rect
       style="display:inline;fill:#b2b2b2;stroke-width:4.0252;stop-color:#000000"
       id="rect1156-0-4-8"
       width="33.333"
       height="50"
       x="-46.999714"
       y="-25"
       transform="rotate(90)" />
    <rect
       style="display:inline;fill:#b2b2b2;stroke-width:4.92987;stop-color:#000000"
       id="rect1156-0-4-8-2"
       width="50"
       height="50"
       x="-147"
       y="-125"
       transform="rotate(90)" />
    <rect
       style="display:inline;fill:#b2b2b2;stroke-width:4.92987;stop-color:#000000"
       id="rect1156-0-4-8-2-0"
       width="50"
       height="50"
       x="-97"
       y="-25"
       transform="rotate(90)" />
    <rect
       style="display:inline;fill:#b2b2b2;stroke-width:4.92987;stop-color:#000000"
       id="rect1156-0-4-8-2-1"
       width="50"
       height="50"
       x="-147"
       y="-175"
       transform="rotate(90)" />
    <rect
       style="display:inline;fill:#b2b2b2;stroke-width:4.92987;stop-color:#000000"
       id="rect1156-0-4-8-2-9"
       width="50"
       height="50"
       x="-47"
       y="-175"
       transform="rotate(90)" />
    <rect
       style="display:inline;fill:#b2b2b2;stroke-width:4.92987;stop-color:#000000"
       id="rect1156-0-4-8-2-4"
       width="50"
       height="50"
       x="-97"
       y="-175"
       transform="rotate(90)" />
    <rect
       style="display:inline;fill:#b2b2b2;stroke-width:4.92987;stop-color:#000000"
       id="rect1156-0-4-8-2-90"
       width="50"
       height="50"
       x="-97"
       y="-125"
       transform="rotate(90)" />
    <rect
       style="display:inline;fill:#b2b2b2;stroke-width:4.92987;stop-color:#000000"
       id="rect1156-0-4-8-2-95"
       width="50"
       height="50"
       x="-47"
       y="-125"
       transform="rotate(90)" />
    <path
       style="display:inline;fill:#ffffff;fill-opacity:1;stroke-width:1.16615;stop-color:#000000"
       id="path989-0"
       d="m 141.66666,-47 a 16.666651,16.666651 0 0 1 -16.66665,16.666651 V -47 Z" />
    <path
       style="display:inline;fill:#ffffff;fill-opacity:1;stroke-width:1.16615;stop-color:#000000"
       id="path989-0-0"
       d="M -80.333349,-125 A 16.666651,16.666651 0 0 1 -97,-108.33335 V -125 Z"
       transform="rotate(90)" />
    <path
       style="display:inline;fill:#ffffff;fill-opacity:1;stroke-width:1.16615;stop-color:#000000"
       id="path989-0-0-7"
       d="M -158.33335,-3 A 16.666651,16.666651 0 0 1 -175,13.666651 V -3 Z"
       transform="scale(-1)" />
    <path
       style="display:inline;fill:#ffffff;fill-opacity:1;stroke-width:1.16615;stop-color:#000000"
       id="path989-0-0-7-2"
       d="M 113.66665,125 A 16.666651,16.666651 0 0 1 97,141.66665 V 125 Z"
       transform="rotate(-90)" />
    <path
       style="display:inline;fill:#ffffff;fill-opacity:1;stroke-width:1.16615;stop-color:#000000"
       id="path989-0-0-7-2-6"
       d="M 13.666651,75 A 16.666651,16.666651 0 0 1 -3,91.666651 V 75 Z"
       transform="rotate(-90)" />
    <path
       style="display:inline;fill:#ffffff;fill-opacity:1;stroke-width:1.16615;stop-color:#000000"
       id="path989-0-0-5"
       d="M -30.333349,-125 A 16.666651,16.666651 0 0 1 -47,-108.33335 V -125 Z"
       transform="rotate(90)" />
    <path
       style="display:inline;fill:#ffffff;fill-opacity:1;stroke-width:1.16615;stop-color:#000000"
       id="path989-0-0-7-20"
       d="M -108.33335,97 A 16.666651,16.666651 0 0 1 -125,113.66665 V 97 Z"
       transform="scale(-1)" />
    <path
       style="display:inline;fill:#ffffff;fill-opacity:1;stroke-width:1.16615;stop-color:#000000"
       id="path989-0-04"
       d="M 141.66665,-97 A 16.666651,16.666651 0 0 1 125,-80.333349 V -97 Z" />
    <rect
       style="display:inline;fill:#ffffff;fill-opacity:1;stroke-width:4.92987;stop-color:#000000"
       id="rect1156-0-4-8-2-1-3-5"
       width="50"
       height="50"
       x="-147"
       y="75"
       transform="rotate(90)" />
  </g>
  <g
     id="layer1"
     style="display:inline"
     transform="translate(-24.5,-2.5)">
    <rect
       height="50"
       style="display:inline;fill:none;stroke:#808080"
       width="50"
       y="-47.000015"
       x="25"
       id="rect7208-3" />
    <rect
       height="50"
       style="display:inline;fill:none;stroke:#808080"
       width="50"
       y="-147"
       x="-125"
       id="rect7208" />
    <rect
       height="50"
       style="display:inline;fill:none;stroke:#808080"
       width="50"
       y="-47"
       x="-75"
       id="rect7208-3-3" />
    <rect
       height="50"
       style="display:inline;fill:none;stroke:#808080"
       width="50"
       y="-46.999714"
       x="-25"
       id="rect7208-3-1" />
    <rect
       height="50"
       style="display:inline;fill:none;stroke:#808080"
       width="50"
       y="-47"
       x="75"
       id="rect7256-2" />
    <rect
       height="50"
       style="display:inline;fill:none;stroke:#808080"
       width="50"
       y="-147"
       x="-75"
       id="rect7256" />
    <rect
       height="50"
       style="display:inline;fill:none;stroke:#808080"
       width="50"
       y="-97"
       x="-75"
       id="rect7256-2-99" />
    <rect
       height="50"
       style="display:inline;fill:none;stroke:#808080"
       width="50"
       y="-147"
       x="125"
       id="rect7256-2-3" />
    <rect
       height="50"
       style="display:inline;fill:none;stroke:#808080"
       width="50"
       y="-147"
       x="25"
       id="rect7256-6" />
    <rect
       height="50"
       style="display:inline;fill:none;stroke:#808080"
       width="50"
       y="-97.000015"
       x="25"
       id="rect7256-2-9" />
    <rect
       height="50"
       style="display:inline;fill:none;stroke:#808080"
       width="50"
       y="-47"
       x="125.00001"
       id="rect7256-2-9-9" />
    <rect
       height="50"
       style="display:inline;fill:none;stroke:#808080"
       width="50"
       y="-147"
       x="75"
       id="rect7256-2-9-5" />
    <rect
       height="50"
       style="display:inline;fill:none;stroke:#808080"
       width="50"
       y="-147"
       x="-25"
       id="rect7256-6-9" />
    <rect
       height="50"
       style="display:inline;fill:none;stroke:#808080"
       width="50"
       y="-97"
       x="75"
       id="rect7256-2-9-0" />
    <rect
       height="50"
       style="display:inline;fill:none;stroke:#808080"
       width="50"
       y="-97"
       x="125"
       id="rect7256-2-9-0-9" />
    <rect
       height="50"
       style="display:inline;fill:none;stroke:#808080"
       width="50"
       y="-97"
       x="-25"
       id="rect7256-2-9-0-6" />
  </g>
</svg>
